<?xml version="1.0" standalone="no"?>
<!DOCTYPE svg PUBLIC "-//W3C//DTD SVG 20010904//EN"
 "http://www.w3.org/TR/2001/REC-SVG-20010904/DTD/svg10.dtd">
<svg version="1.0" xmlns="http://www.w3.org/2000/svg"
 width="500.000000pt" height="500.000000pt" viewBox="0 0 500.000000 500.000000"
 preserveAspectRatio="xMidYMid meet">
<metadata>
Created by potrace 1.15, written by Peter Selinger 2001-2017
</metadata>
<g transform="translate(0.000000,500.000000) scale(0.100000,-0.100000)"
fill="#000000" stroke="none">
<path d="M0 2500 l0 -2500 2500 0 2500 0 0 2500 0 2500 -2500 0 -2500 0 0
-2500z m2614 1599 c3 -17 3 -35 0 -40 -3 -5 -52 -9 -110 -9 l-104 0 0 -25 c0
-25 1 -25 89 -25 82 0 90 -2 96 -21 4 -11 5 -22 3 -25 -3 -2 -46 -7 -97 -11
-84 -6 -92 -8 -89 -26 3 -18 11 -19 121 -18 l117 2 0 -34 0 -34 -77 -7 c-42
-3 -122 -6 -178 -6 l-102 0 -7 141 c-4 78 -3 146 1 150 5 5 74 10 153 12 80 1
152 4 161 5 11 1 19 -8 23 -29z m-456 -21 c-13 -18 -48 -64 -77 -103 l-53 -70
109 -33 c59 -18 115 -36 123 -39 9 -3 -17 -16 -59 -31 l-75 -25 -78 26 -78 25
-26 -33 c-16 -21 -24 -43 -22 -61 3 -25 -2 -28 -57 -47 -33 -11 -80 -35 -104
-54 -48 -36 -54 -38 -80 -23 -14 7 -34 -3 -95 -48 -69 -51 -76 -59 -71 -83 5
-24 0 -32 -41 -63 -35 -27 -50 -33 -54 -24 -4 7 -12 85 -19 173 l-12 160 33
27 c18 16 42 30 53 34 13 3 84 -18 174 -51 84 -31 155 -55 157 -52 3 2 -16 62
-41 132 -25 70 -45 131 -45 134 0 6 96 41 113 41 3 0 13 -24 22 -52 10 -29 21
-57 25 -61 4 -4 38 34 75 86 67 91 70 94 139 120 91 33 93 33 64 -5z m755 -4
c20 -4 37 -9 37 -13 -1 -3 -15 -69 -33 -146 -36 -156 -29 -148 -115 -122 l-39
12 33 140 c18 77 33 142 33 144 1 2 11 1 24 -3 12 -3 39 -9 60 -12z m281 -94
c86 -36 156 -70 156 -77 0 -7 -5 -23 -11 -37 l-12 -25 -53 24 -54 24 -16 -37
c-9 -20 -24 -59 -35 -86 -37 -91 -32 -88 -87 -65 -26 11 -51 24 -55 28 -4 4
10 50 33 101 22 51 40 97 40 100 0 4 -22 17 -50 29 -27 12 -50 23 -50 25 0 15
24 66 30 64 5 -2 78 -32 164 -68z m398 -236 c41 -21 116 -92 134 -125 16 -31
18 -77 5 -97 -11 -18 -93 50 -112 93 -10 22 -22 31 -44 33 -30 4 -30 4 21 -50
92 -97 104 -152 42 -184 -64 -33 -164 11 -235 105 -33 42 -44 99 -25 128 8 12
85 -56 127 -112 14 -18 28 -26 40 -23 17 3 12 12 -36 63 -87 92 -96 119 -54
160 29 30 89 34 137 9z m-2284 -294 c56 -36 102 -68 102 -72 0 -12 -55 -97
-62 -98 -4 0 -39 20 -78 45 -39 25 -72 45 -74 45 -3 0 18 -43 45 -94 l50 -95
-28 -42 -27 -41 -103 7 c-57 4 -103 5 -103 2 0 -3 34 -27 75 -52 47 -29 72
-51 68 -59 -4 -6 -19 -30 -34 -53 l-26 -42 -104 65 c-57 36 -114 72 -127 80
l-22 15 39 62 40 62 125 5 124 5 -49 104 c-27 57 -49 108 -49 114 0 5 16 36
36 69 34 56 37 58 58 45 11 -7 67 -42 124 -77z m2603 -13 l37 -62 -54 -107
c-30 -59 -54 -110 -54 -113 0 -3 46 -5 103 -5 56 0 112 -3 125 -6 31 -9 99
-123 80 -136 -7 -4 -63 -38 -125 -75 -62 -37 -111 -69 -109 -71 2 -1 73 -31
157 -66 l154 -63 11 -57 11 -57 -123 -116 c-68 -64 -124 -119 -124 -123 0 -3
51 -12 113 -19 171 -18 166 -17 161 -54 -35 -269 -46 -313 -86 -341 -36 -25
-85 -20 -117 12 -24 23 -31 26 -47 16 -11 -6 -36 -14 -56 -17 l-37 -6 6 52 c7
60 17 77 48 77 32 0 52 28 60 84 7 55 -1 66 -49 66 l-29 0 7 63 c10 80 10 73
1 137 -6 48 -4 58 13 73 18 17 19 20 3 109 -15 84 -19 92 -43 100 -27 9 -30
15 -44 103 -3 22 -19 62 -35 88 l-29 48 30 17 c17 9 54 32 83 49 l52 33 -112
0 -111 0 -22 38 -23 37 52 97 52 97 -76 -44 c-42 -25 -79 -45 -83 -45 -8 0
-62 86 -62 98 0 7 239 152 250 152 3 0 21 -28 41 -63z m-1356 -226 c176 -20
343 -58 392 -91 23 -16 73 -38 111 -49 38 -12 77 -30 87 -41 11 -12 46 -35 79
-53 73 -38 142 -106 166 -163 11 -25 32 -50 52 -62 38 -23 52 -49 93 -162 15
-41 36 -95 45 -120 39 -98 47 -266 18 -375 -6 -22 -10 -65 -9 -96 1 -50 -3
-62 -38 -115 -52 -78 -76 -102 -107 -110 -40 -10 -133 2 -199 26 -33 12 -86
26 -118 31 -71 11 -109 30 -126 62 -15 29 -82 43 -128 27 -37 -13 -140 -30
-233 -38 -41 -4 -85 -13 -97 -20 -26 -14 -72 -16 -106 -3 -19 7 -35 4 -68 -12
-37 -18 -61 -21 -164 -22 -113 0 -123 2 -179 29 -37 19 -69 44 -87 69 -16 22
-39 45 -52 51 -16 9 -23 23 -27 56 -4 39 -9 45 -30 48 -14 2 -51 15 -84 29
-32 13 -99 33 -149 44 -137 29 -177 60 -177 139 0 20 -6 44 -14 55 -28 42 -29
92 -2 152 18 39 26 72 26 113 0 54 3 61 44 107 25 27 48 63 52 79 8 36 25 56
92 108 30 22 69 53 87 67 18 14 58 31 89 38 35 8 67 23 86 41 35 32 85 50 142
50 20 0 40 5 43 10 15 25 86 50 139 50 49 0 58 3 73 26 31 48 54 50 278 25z
m-1685 -390 c0 -9 -5 -34 -10 -56 -5 -22 -7 -41 -5 -43 2 -3 50 -13 106 -23
56 -10 104 -20 106 -22 5 -6 -9 -94 -17 -108 -7 -10 -28 -9 -110 6 -115 20
-114 20 -125 -52 -6 -44 -7 -44 -38 -37 -18 3 -34 8 -36 10 -4 4 28 193 50
304 10 45 10 46 44 42 24 -3 35 -9 35 -21z m95 -405 c47 -20 75 -79 82 -170 5
-59 2 -81 -14 -117 -26 -59 -63 -76 -179 -85 l-91 -7 -6 33 c-14 69 -10 87 24
94 17 3 51 6 74 6 93 0 136 41 104 99 -14 25 -18 26 -116 26 l-101 0 -6 44
c-11 79 -11 80 42 84 106 8 154 6 187 -7z m82 -408 c11 -13 30 -42 42 -65 23
-47 113 -284 109 -288 -2 -1 -65 -24 -140 -52 l-137 -51 -46 127 c-64 171 -74
221 -52 255 20 30 63 44 88 27 16 -9 20 -7 25 17 10 40 23 52 58 52 21 0 40
-8 53 -22z m3122 -129 c17 -6 31 -14 31 -17 0 -10 -122 -316 -129 -324 -3 -4
-20 0 -38 7 l-32 14 21 51 c12 30 17 54 12 59 -5 4 -47 23 -94 41 -47 18 -88
36 -93 40 -9 8 24 101 39 107 6 2 51 -12 100 -31 48 -20 93 -36 100 -36 7 0
20 23 30 50 10 28 19 50 19 50 1 0 16 -5 34 -11z m-2069 -754 c0 -11 -12 -15
-42 -17 l-43 -1 38 -4 c47 -5 49 -23 2 -23 -19 0 -35 -4 -35 -10 0 -5 20 -10
45 -10 33 0 45 -4 45 -15 0 -12 -14 -15 -70 -15 l-70 0 0 55 0 55 65 0 c51 0
65 -3 65 -15z m148 -2 c2 -9 -10 -13 -40 -14 l-43 -1 35 -7 c61 -12 73 -27 44
-55 -15 -16 -69 -21 -98 -10 -22 8 -20 34 2 35 13 0 12 2 -5 9 -25 10 -29 30
-11 48 16 16 110 12 116 -5z m152 2 c0 -8 -9 -15 -20 -15 -17 0 -20 -7 -20
-40 0 -36 -2 -40 -25 -40 -22 0 -25 4 -25 40 0 33 -3 40 -20 40 -11 0 -20 7
-20 15 0 12 14 15 65 15 51 0 65 -3 65 -15z m181 -1 c18 -21 0 -47 -37 -55
l-29 -6 34 -4 c19 -2 36 -10 39 -16 3 -10 -15 -13 -67 -13 -39 0 -71 4 -71 9
0 26 16 42 54 53 l41 13 -42 3 c-24 2 -43 7 -43 12 0 24 101 27 121 4z m146
-10 c15 -24 15 -29 2 -53 -30 -53 -129 -34 -129 25 0 34 26 54 70 54 32 0 43
-5 57 -26z m141 14 c22 -22 14 -47 -20 -57 l-33 -9 33 -1 c21 -1 32 -6 32 -16
0 -12 -14 -15 -66 -15 -61 0 -65 1 -62 21 3 22 10 27 58 47 23 10 21 11 -19
11 -37 1 -42 3 -31 16 15 18 91 20 108 3z m149 4 c14 -9 14 -72 0 -89 -12 -16
-89 -17 -105 -1 -22 22 -12 31 28 24 37 -6 56 6 28 17 -10 4 -9 8 2 16 12 8 5
11 -29 11 -37 0 -42 2 -31 15 13 16 86 21 107 7z"/>
<path d="M1490 3671 c0 -10 3 -33 6 -50 l6 -31 40 31 39 32 -41 18 c-52 23
-50 23 -50 0z"/>
<path d="M4060 2677 c0 -26 12 -77 19 -77 3 1 21 14 40 30 l34 29 -24 9 c-58
22 -69 24 -69 9z"/>
<path d="M4116 2169 c-14 -136 51 -128 68 9 l7 52 -34 0 -34 0 -7 -61z"/>
<path d="M2346 3213 c-22 -6 -55 -42 -56 -60 0 -18 30 -16 76 3 31 13 55 15
124 9 70 -7 80 -9 55 -16 -16 -5 -53 -6 -82 -3 -37 5 -65 2 -101 -11 -40 -15
-55 -16 -82 -6 -71 24 -164 9 -199 -33 -9 -11 -30 -16 -61 -16 -53 0 -110 -34
-149 -89 -15 -21 -31 -31 -48 -31 -46 0 -163 -102 -163 -142 0 -7 -29 -40 -65
-74 -47 -44 -65 -67 -65 -86 0 -21 6 -27 30 -30 26 -4 32 0 52 40 14 27 36 52
55 61 22 11 33 25 37 47 7 36 73 102 127 129 l34 16 -30 -23 c-65 -49 -95 -84
-101 -115 -6 -33 -6 -33 35 -33 34 0 43 4 51 23 8 20 9 19 9 -10 1 -17 6 -35
12 -39 22 -13 183 -4 194 11 11 16 27 -21 51 -119 8 -33 20 -67 27 -75 11 -14
10 -14 -6 -2 -9 7 -24 38 -33 67 -20 71 -50 94 -120 94 -69 0 -81 -6 -103 -49
-28 -55 -34 -103 -15 -129 8 -12 19 -22 25 -22 11 0 107 -60 97 -60 -17 0
-115 43 -132 58 -10 9 -22 27 -27 40 -5 13 -17 22 -31 23 l-23 0 21 11 c13 6
30 33 43 66 18 51 19 58 5 72 -23 23 -116 20 -144 -5 -59 -52 -82 -193 -39
-236 15 -15 30 -20 55 -17 31 4 35 1 45 -32 24 -76 50 -108 97 -125 61 -20 94
-19 126 6 43 34 23 55 -84 88 -34 10 -33 10 18 7 39 -2 64 -11 95 -33 49 -35
78 -44 101 -31 24 14 20 24 -28 76 -45 49 -68 87 -92 154 -12 34 -12 43 0 59
12 18 14 16 18 -28 6 -63 33 -119 81 -165 41 -39 71 -47 109 -27 18 10 19 17
14 73 -6 56 -4 66 23 117 36 67 47 119 32 148 -14 25 -61 51 -93 51 -15 0 -31
12 -46 35 -25 39 -61 46 -100 19 -12 -8 -22 -10 -22 -5 0 6 11 17 23 26 31 20
83 10 123 -25 17 -14 52 -32 78 -40 25 -7 49 -17 52 -22 3 -5 21 5 40 22 19
16 42 30 52 30 12 0 10 -4 -8 -13 -29 -14 -53 -61 -70 -131 -6 -27 -24 -68
-40 -90 -63 -85 -14 -211 50 -129 11 15 36 37 55 50 24 16 46 48 78 115 24 51
52 100 62 108 13 11 11 3 -8 -25 -14 -22 -36 -67 -48 -100 -26 -72 -52 -112
-79 -120 -11 -4 -25 -16 -31 -28 -10 -17 -9 -23 4 -31 12 -8 -7 -19 -89 -52
-206 -81 -345 -208 -344 -315 1 -41 20 -69 49 -69 23 0 27 -10 10 -27 -15 -15
41 -77 94 -101 58 -28 149 -46 183 -38 l29 8 -25 19 -25 19 33 -11 c22 -8 54
-9 90 -4 32 5 87 8 125 7 48 -2 77 3 100 15 21 11 58 18 107 19 103 2 243 34
274 63 21 20 24 21 23 4 -2 -12 6 -19 23 -21 46 -7 97 17 142 67 50 56 115
178 102 191 -18 18 -256 32 -325 20 -85 -16 -141 -15 -175 3 -25 12 -46 12
-144 1 -318 -35 -338 -39 -437 -75 -66 -25 -100 -51 -119 -94 -11 -24 -13 -26
-14 -9 0 12 -10 25 -25 32 -34 16 -32 29 4 24 21 -3 40 3 63 21 29 22 200 87
231 87 29 1 37 16 26 48 -7 22 -7 36 0 49 9 15 10 13 11 -14 0 -23 7 -37 25
-49 22 -14 41 -15 182 -4 153 11 172 17 173 47 0 7 9 17 19 23 18 9 18 8 8
-20 -14 -36 4 -60 43 -59 14 0 125 1 246 3 l222 3 71 34 c59 28 73 40 82 67
14 42 30 42 18 0 -5 -18 -9 -34 -9 -35 0 -2 -26 -16 -57 -32 -64 -32 -102 -83
-123 -159 -13 -50 -8 -62 26 -62 15 0 42 -16 68 -40 24 -22 57 -43 73 -46 26
-5 34 -1 56 28 38 49 57 101 58 157 2 53 -6 75 -23 65 -5 -4 -3 5 6 19 13 20
16 41 12 102 -2 43 -8 81 -13 85 -4 3 -29 5 -56 2 -41 -3 -50 -8 -64 -36 -15
-29 -34 -49 -41 -42 -1 2 7 20 18 39 30 50 24 88 -17 107 -18 8 -33 19 -33 23
0 16 45 -5 77 -36 30 -28 34 -29 62 -17 22 9 32 21 36 44 8 40 -17 101 -52
123 l-26 17 -46 -51 c-25 -28 -56 -56 -68 -62 -13 -7 -23 -20 -23 -31 0 -13
-5 -18 -15 -13 -24 9 -13 36 20 52 46 21 66 42 87 89 26 59 18 86 -38 122 -39
24 -50 27 -74 18 -35 -12 -117 -122 -126 -167 -4 -17 -10 -28 -15 -25 -18 11
-8 43 31 102 22 33 40 65 40 71 0 6 11 17 25 23 31 14 31 19 0 57 -33 38 -82
54 -172 55 -69 1 -74 -1 -107 -33 -19 -18 -58 -45 -87 -60 -29 -14 -60 -37
-71 -51 -15 -21 -55 -123 -95 -242 -8 -25 21 -23 85 7 53 24 74 20 26 -6 l-26
-14 28 -11 c24 -10 18 -11 -42 -7 -59 4 -166 -7 -304 -32 -29 -6 -25 -2 26 23
38 18 69 42 83 63 19 28 21 30 15 9 -4 -14 -9 -31 -11 -37 -9 -24 53 -14 81
12 29 27 69 108 81 165 14 65 33 88 105 126 74 39 99 68 101 121 1 22 3 23 6
7 4 -20 12 -22 111 -26 59 -3 116 -9 126 -13 17 -8 19 -5 13 29 -7 42 8 40 18
-3 3 -15 19 -41 35 -56 l30 -28 14 34 c9 19 15 27 16 19 0 -9 19 -22 45 -32
l46 -16 -24 32 c-34 43 -131 107 -186 122 -39 11 -41 13 -16 13 27 1 28 2 13
18 -30 29 -127 43 -205 28 -87 -17 -187 -73 -201 -113 -10 -30 -81 -87 -142
-116 l-35 -16 29 22 c16 13 48 37 70 53 23 17 50 49 61 72 11 23 25 42 32 43
6 0 25 11 42 25 16 14 56 33 87 41 32 8 60 17 63 20 11 11 -56 53 -84 54 -16
0 -77 12 -135 26 -77 19 -119 24 -158 20 -34 -4 -64 -1 -86 8 -40 17 -104 26
-130 19z m369 -114 c15 -6 10 -8 -20 -9 -64 -1 -88 -18 -97 -69 -10 -57 -26
-75 -25 -28 1 44 -13 62 -69 83 -44 17 -46 16 -93 -6 -40 -18 -52 -20 -71 -10
-31 16 -70 7 -165 -40 -50 -25 -101 -43 -135 -47 -69 -7 -61 5 11 16 30 5 82
25 116 44 76 43 119 58 175 59 170 2 236 6 258 16 25 11 76 7 115 -9z m-393
-162 c-4 -57 -22 -71 -22 -17 0 27 18 87 23 79 2 -2 1 -30 -1 -62z m108 6
c-11 -21 -23 -55 -26 -75 -6 -37 -34 -55 -34 -23 0 28 61 135 77 135 1 0 -6
-17 -17 -37z m613 -174 c-35 -22 -41 -34 -20 -43 6 -3 0 -3 -15 -1 -47 6 -107
-16 -148 -56 -22 -22 -40 -34 -40 -27 0 19 80 88 103 88 12 1 47 14 77 30 63
34 91 40 43 9z m32 -270 c-3 -8 -21 -26 -40 -40 l-35 -26 64 -33 c35 -17 79
-48 97 -68 l34 -36 -44 37 c-45 37 -184 97 -276 118 -90 21 -87 24 29 24 101
0 118 2 143 21 31 24 36 24 28 3z m89 -94 c17 -11 40 -16 70 -14 35 3 42 1 34
-8 -34 -41 -150 14 -147 69 0 7 4 3 9 -9 5 -12 20 -29 34 -38z m-136 -45 c68
-29 62 -36 -9 -9 -43 17 -71 20 -141 17 -48 -1 -84 0 -80 4 27 25 159 19 230
-12z m-482 -235 c56 -38 120 -53 172 -38 17 4 22 11 19 25 -5 17 -3 17 31 -4
53 -33 160 -30 261 5 41 15 77 25 79 23 2 -2 -20 -19 -47 -37 -28 -18 -51 -37
-51 -43 0 -7 -3 -8 -8 -1 -6 9 -73 13 -239 15 -16 1 -47 -2 -70 -6 -28 -4 -61
0 -96 11 -50 15 -58 16 -101 1 -53 -18 -132 -21 -172 -6 -40 16 -26 19 31 8
54 -11 114 -1 150 26 16 12 17 16 6 30 -19 23 -8 20 35 -9z m-270 -108 c-15
-11 -15 -15 -4 -24 45 -35 164 -43 262 -18 84 22 79 13 -8 -15 -95 -30 -222
-26 -280 8 -50 30 -73 28 -150 -13 -37 -19 -72 -35 -79 -34 -7 0 -6 3 3 6 8 3
37 21 63 41 54 39 114 60 171 61 35 1 38 -1 22 -12z"/>
<path d="M1735 2962 c-16 -8 -61 -42 -100 -75 -93 -80 -116 -134 -44 -105 22
10 43 32 68 73 27 45 50 68 91 93 54 32 42 44 -15 14z"/>
<path d="M3252 2838 c-17 -17 -15 -38 4 -38 35 0 94 -45 111 -86 17 -41 67
-81 78 -63 8 12 -47 113 -59 110 -5 -2 -18 11 -29 28 -18 29 -63 61 -85 61 -4
0 -13 -5 -20 -12z"/>
<path d="M1530 2742 c-44 -22 -80 -75 -80 -118 0 -26 4 -34 18 -34 27 0 42 20
42 57 0 24 10 44 36 73 40 44 37 49 -16 22z"/>
<path d="M3449 2695 c13 -23 20 -47 17 -59 -3 -12 -2 -43 4 -71 5 -27 12 -67
15 -88 9 -56 25 -35 25 32 0 114 -29 206 -70 219 -9 3 -6 -8 9 -33z"/>
<path d="M1521 2591 c-6 -11 -11 -35 -11 -53 -1 -18 -7 -44 -15 -58 -35 -61
-13 -116 60 -153 37 -18 137 -47 162 -47 16 1 15 3 -6 20 -13 11 -30 20 -39
20 -9 0 -35 9 -59 21 -55 27 -98 94 -84 130 9 23 10 22 10 -9 2 -61 43 -99
146 -132 22 -7 61 -28 88 -46 26 -18 72 -38 102 -44 52 -11 56 -10 90 16 24
18 35 34 35 53 l0 26 -20 -32 c-19 -32 -21 -33 -90 -33 -63 0 -72 3 -104 31
-19 16 -45 52 -57 80 -15 33 -29 49 -41 49 -28 0 -74 26 -83 47 -5 10 -11 43
-14 73 -6 51 -8 55 -33 58 -18 2 -30 -3 -37 -17z"/>
<path d="M1454 2553 c-27 -28 -44 -79 -44 -135 0 -65 13 -90 29 -60 6 11 11
31 11 44 0 13 9 43 20 67 21 45 27 101 11 101 -5 0 -17 -8 -27 -17z"/>
<path d="M3530 2489 c0 -17 -5 -40 -11 -51 -7 -12 -11 -63 -11 -117 2 -187 1
-178 14 -156 12 20 24 355 13 355 -3 0 -5 -14 -5 -31z"/>
<path d="M3559 2309 c-4 -130 -5 -136 -38 -199 -19 -36 -51 -92 -72 -126 -22
-34 -39 -70 -39 -81 0 -38 -24 -56 -83 -61 -48 -4 -60 -1 -90 22 -18 14 -45
26 -58 26 -14 0 -46 13 -70 29 -36 22 -50 26 -65 18 -29 -15 -29 -15 -8 -38
22 -25 77 -49 111 -49 13 0 52 -12 86 -26 72 -31 139 -28 187 6 17 12 30 16
30 10 0 -6 -17 -21 -37 -33 -28 -16 -33 -23 -20 -25 46 -9 167 117 167 174 l0
26 -20 -23 -21 -24 21 42 c11 23 20 62 20 85 0 29 3 38 9 29 7 -11 12 -4 20
25 13 48 14 137 1 228 -18 120 -28 109 -31 -35z"/>
<path d="M1466 2325 c-14 -37 29 -75 86 -75 63 0 183 -36 230 -68 48 -33 64
-37 86 -24 10 7 8 15 -9 36 -33 42 -90 66 -156 66 -62 0 -182 37 -213 65 -16
15 -18 15 -24 0z"/>
<path d="M1440 2264 c0 -50 45 -77 168 -98 43 -8 110 -28 151 -45 85 -36 101
-38 101 -13 0 10 -6 19 -13 19 -7 0 -38 16 -68 37 -60 40 -145 65 -220 66 -32
0 -57 7 -83 25 -28 19 -36 21 -36 9z"/>
<path d="M3131 2014 c-22 -26 -41 -50 -41 -55 0 -19 55 -49 90 -49 22 0 43 -7
51 -16 19 -23 68 -46 87 -40 9 2 29 7 43 10 49 11 44 96 -5 96 -13 0 -36 14
-54 34 -22 24 -43 36 -74 41 -24 4 -46 12 -49 17 -3 5 -25 -12 -48 -38z"/>
<path d="M1002 1852 c3 -21 14 -57 24 -79 17 -36 22 -40 41 -33 l22 9 -20 52
c-29 75 -38 89 -56 89 -12 0 -15 -8 -11 -38z"/>
<path d="M912 1838 c-7 -9 -4 -31 10 -75 21 -62 30 -71 57 -54 12 8 10 18 -8
65 -27 64 -43 82 -59 64z"/>
<path d="M2178 1063 c7 -3 16 -2 19 1 4 3 -2 6 -13 5 -11 0 -14 -3 -6 -6z"/>
<path d="M2650 1084 c0 -33 33 -30 38 4 3 17 -2 22 -17 22 -16 0 -21 -6 -21
-26z"/>
</g>
</svg>
