<svg xmlns="http://www.w3.org/2000/svg" version="1.1" xmlns:xlink="http://www.w3.org/1999/xlink" xmlns:svgjs="http://svgjs.dev/svgjs" width="1920" height="1080" preserveAspectRatio="none" viewBox="0 0 1920 1080"><g mask="url(&quot;#SvgjsMask1021&quot;)" fill="none"><path d="M437.21 1156.86C635.99 1110.79 706.4 588.65 1015.93 581.28 1325.45 573.91 1305.28 716.28 1594.64 716.28 1884 716.28 2024.8 582.17 2173.36 581.28" stroke="rgba(0, 0, 0, 0.56)" stroke-width="2"></path><path d="M138.11 1152.01C398.52 1143.62 580.01 758.14 1096.95 743.64 1613.88 729.14 1799.17 382.65 2055.78 376.44" stroke="rgba(0, 0, 0, 0.56)" stroke-width="2"></path><path d="M1115.79 1178.67C1337.7 1075.8 1371.33 372 1660.81 366.13 1950.28 360.26 2035.24 763.75 2205.82 787.33" stroke="rgba(0, 0, 0, 0.56)" stroke-width="2"></path><path d="M1089.34 1103.07C1240.91 1016.31 1163.33 503.35 1440.23 498.99 1717.13 494.63 1955.03 754.09 2142.01 758.19" stroke="rgba(0, 0, 0, 0.56)" stroke-width="2"></path><path d="M87.3 1231.07C354.03 1085.33 329.3 234.69 712.98 188.62 1096.66 142.55 1025.82 323.62 1338.66 323.62 1651.5 323.62 1804.32 189.38 1964.34 188.62" stroke="rgba(0, 0, 0, 0.56)" stroke-width="2"></path></g><defs><mask id="SvgjsMask1021"><rect width="1920" height="1080" fill="#ffffff"></rect></mask></defs></svg>