<svg xmlns="http://www.w3.org/2000/svg" version="1.1" xmlns:xlink="http://www.w3.org/1999/xlink" xmlns:svgjs="http://svgjs.dev/svgjs" width="1440" height="560" preserveAspectRatio="none" viewBox="0 0 1440 560"><g mask="url(&quot;#SvgjsMask1008&quot;)" fill="none"><path d="M1440 0L1078.44 0L1440 164.16z" fill="rgba(255, 255, 255, .1)"></path><path d="M1078.44 0L1440 164.16L1440 273.47L586.3000000000001 0z" fill="rgba(255, 255, 255, .075)"></path><path d="M586.3 0L1440 273.47L1440 441.1L293.66999999999996 0z" fill="rgba(255, 255, 255, .05)"></path><path d="M293.6700000000001 0L1440 441.1L1440 499.03000000000003L233.61000000000007 0z" fill="rgba(255, 255, 255, .025)"></path><path d="M0 560L207.34 560L0 379.99z" fill="rgba(0, 0, 0, .1)"></path><path d="M0 379.99L207.34 560L372.59000000000003 560L0 262.03000000000003z" fill="rgba(0, 0, 0, .075)"></path><path d="M0 262.03000000000003L372.59000000000003 560L776.21 560L0 141.78000000000003z" fill="rgba(0, 0, 0, .05)"></path><path d="M0 141.78000000000003L776.21 560L999.25 560L0 121.34000000000003z" fill="rgba(0, 0, 0, .025)"></path></g><defs><mask id="SvgjsMask1008"><rect width="1440" height="560" fill="#ffffff"></rect></mask></defs></svg>